<!DOCTYPE svg PUBLIC "-//W3C//DTD SVG 1.1//EN" "http://www.w3.org/Graphics/SVG/1.1/DTD/svg11.dtd">

<!-- Uploaded to: SVG Repo, www.svgrepo.com, Transformed by: SVG Repo Mixer Tools -->
<svg width="800px" height="800px" viewBox="0 0 24 24" version="1.1" xml:space="preserve" xmlns="http://www.w3.org/2000/svg" xmlns:xlink="http://www.w3.org/1999/xlink" fill="#00" stroke="#00">

<g id="SVGRepo_bgCarrier" stroke-width="0"/>

<g id="SVGRepo_tracerCarrier" stroke-linecap="round" stroke-linejoin="round"/>

<g id="SVGRepo_iconCarrier"> <style type="text/css"> .st0{opacity:0.2;fill:none;stroke:#000000;stroke-width:5.000000e-02;stroke-miterlimit:10;} .st1{fill:none;stroke:#00;stroke-width:2;stroke-linecap:round;stroke-linejoin:round;stroke-miterlimit:10;} </style> <g id="Layer_1"/> <g id="Layer_2"> <g> <path d="M12,22C6.5,22,2,17.5,2,12c0-4.7,3.4-8.9,8-9.8c0.4-0.1,0.9,0.1,1.1,0.5c0.2,0.4,0.1,0.9-0.2,1.2C9.7,5.1,9,6.8,9,8.5 c0,3.6,2.9,6.5,6.5,6.5c1.7,0,3.4-0.7,4.6-1.9c0.3-0.3,0.8-0.4,1.2-0.2c0.4,0.2,0.6,0.6,0.5,1.1C20.9,18.6,16.7,22,12,22z M7.6,5.3C5.4,6.8,4,9.2,4,12c0,4.4,3.6,8,8,8c2.8,0,5.2-1.4,6.7-3.6c-1,0.4-2.1,0.6-3.2,0.6C10.8,17,7,13.2,7,8.5 C7,7.4,7.2,6.3,7.6,5.3z"/> </g> </g> </g>

</svg>