<svg xmlns="http://www.w3.org/2000/svg" width="655.359" height="655.359" fill-rule="evenodd" clip-rule="evenodd" image-rendering="optimizeQuality" shape-rendering="geometricPrecision" text-rendering="geometricPrecision" viewBox="0 0 6.827 6.827" id="quran"><g><g><path d="M3.412 3.835l.048-.005v.005a.57.57 0 01.185.037l.104.042-.336.13-.306-.119.096-.044a.55.55 0 01.208-.046h.001zM5.74 4.684v.01l-.006.244-1.749-.674L4.9 3.9l.02.026c.068.089.145.173.23.244.127.106.278.18.438.217a.206.206 0 01.102.066c.054.064.063.148.051.228v.003zM2.962 4.312l.332.132-1.993.793h-.007a.198.198 0 01-.158-.05.194.194 0 01-.052-.11l-.006-.034.033-.013c.611-.239 1.223-.476 1.835-.712l.016-.006zM1.086 4.684V4.68c-.012-.08-.004-.164.05-.228a.206.206 0 01.102-.066c.161-.037.312-.11.439-.217.085-.071.162-.155.229-.244l.02-.026.916.364-.106.04c-.529.204-1.057.41-1.585.615l-.058.023-.007-.248v-.01zM2.937 4.207l-1.01-.401-.002-.002-.505-.2a.736.736 0 01-.21-.11c-.058-.045-.109-.106-.117-.182l-.008-.072 1.946.75.007.003.353.136.013.005.444.172.007.002 1.893.73-.004.034a.198.198 0 01-.05.112c-.043.045-.102.057-.162.053h-.007l-2.088-.831-.015-.006-.485-.193zM5.498 3.334l.005-.002.239-.092-.008.072a.2.2 0 01-.01.043.307.307 0 01-.109.139.695.695 0 01-.13.077c-.025.012-.05.021-.076.032l-.506.201-.005.002-1.034.411-.328-.127.285-.11c.003 0 .007-.002.01-.004l1.667-.642zM3.479 3.694a.68.68 0 01.158-.278c.147-.157.36-.246.564-.301.108-.03.218-.052.329-.07L4.82 3c.063-.01.132-.02.192-.04.01-.004.057-.021.06-.034l.001-.001V1.178l.385.273-.017 1.81-1.616.623-.02-.018a.43.43 0 00-.13-.077.634.634 0 00-.159-.038l-.052-.006.015-.05zM3.311 3.757a.606.606 0 00-.127.036.41.41 0 00-.13.084l-.02.02-1.664-.641-.001-1.805.385-.273v1.748c0 .026.023.044.048.044a3.332 3.332 0 01.326.029c.195.027.393.07.577.138.27.1.553.27.64.563l.015.048-.049.009z"></path><path d="M3.37 2.034v1.48l-.08-.095c-.302-.364-.957-.5-1.407-.533l-.04-.003V1.141l.048.004c.415.039.967.145 1.278.452.074.073.137.16.172.259.015.04.028.09.028.133v.045zM3.457 1.998V1.99c0-.042.014-.093.028-.132a.71.71 0 01.17-.26c.311-.307.865-.414 1.281-.453l.048-.004v1.742l-.04.003c-.45.033-1.104.17-1.409.533l-.078.093V1.999zM1.032 5.332h4.762a.177.177 0 010 .354H1.032a.177.177 0 010-.354z"></path></g></g><path fill="none" d="M0 0h6.827v6.827H0z"></path></svg>