<svg xmlns="http://www.w3.org/2000/svg" xmlns:xlink="http://www.w3.org/1999/xlink" version="1.1" width="256" height="256" viewBox="0 0 256 256" xml:space="preserve">

<defs>
</defs>
<g style="stroke: none; stroke-width: 0; stroke-dasharray: none; stroke-linecap: butt; stroke-linejoin: miter; stroke-miterlimit: 10; fill: none; fill-rule: nonzero; opacity: 1;" transform="translate(1.4065934065934016 1.4065934065934016) scale(2.81 2.81)" >
	<path d="M 45 88 c -11.049 0 -21.18 -2.003 -29.021 -8.634 C 6.212 71.105 0 58.764 0 45 C 0 20.187 20.187 0 45 0 c 24.813 0 45 20.187 45 45 c 0 13.765 -6.212 26.105 -15.979 34.366 C 66.181 85.998 56.049 88 45 88 z" style="stroke: none; stroke-width: 1; stroke-dasharray: none; stroke-linecap: butt; stroke-linejoin: miter; stroke-miterlimit: 10; fill: rgb(214,214,214); fill-rule: nonzero; opacity: 1;" transform=" matrix(1 0 0 1 0 0) " stroke-linecap="round" />
	<path d="M 45 60.71 c -11.479 0 -20.818 -9.339 -20.818 -20.817 c 0 -11.479 9.339 -20.818 20.818 -20.818 c 11.479 0 20.817 9.339 20.817 20.818 C 65.817 51.371 56.479 60.71 45 60.71 z" style="stroke: none; stroke-width: 1; stroke-dasharray: none; stroke-linecap: butt; stroke-linejoin: miter; stroke-miterlimit: 10; fill: rgb(165,164,164); fill-rule: nonzero; opacity: 1;" transform=" matrix(1 0 0 1 0 0) " stroke-linecap="round" />
	<path d="M 45 90 c -10.613 0 -20.922 -3.773 -29.028 -10.625 c -0.648 -0.548 -0.88 -1.444 -0.579 -2.237 C 20.034 64.919 31.933 56.71 45 56.71 s 24.966 8.209 29.607 20.428 c 0.301 0.793 0.069 1.689 -0.579 2.237 C 65.922 86.227 55.613 90 45 90 z" style="stroke: none; stroke-width: 1; stroke-dasharray: none; stroke-linecap: butt; stroke-linejoin: miter; stroke-miterlimit: 10; fill: rgb(165,164,164); fill-rule: nonzero; opacity: 1;" transform=" matrix(1 0 0 1 0 0) " stroke-linecap="round" />
</g>
</svg>